<?xml version="1.0" encoding="UTF-8"?>
<svg width="50" height="50" version="1.1" viewBox="0 0 13.229 13.229">
 <g fill-rule="evenodd">
  <path transform="scale(.26458)" d="m24.832 0a25 25 0 0 0-24.832 25 25 25 0 0 0 25 25 25 25 0 0 0 25-25 25 25 0 0 0-25-25 25 25 0 0 0-0.16797 0zm0.16797 5a20 20 0 0 1 20 20 20 20 0 0 1-20 20 20 20 0 0 1-20-20 20 20 0 0 1 20-20z" fill="#ccc" stroke-width=".13699"/>
  <circle cx="6.6146" cy="6.6146" r="3.9688" fill="currentColor" stroke-width=".021747"/>
 </g>
</svg>
