<?xml version="1.0" encoding="utf-8"?>
<!-- Generator: Adobe Illustrator 24.1.1, SVG Export Plug-In . SVG Version: 6.00 Build 0)  -->
<svg version="1.1" id="Layer_1" xmlns="http://www.w3.org/2000/svg" xmlns:xlink="http://www.w3.org/1999/xlink" x="0px" y="0px"
	 viewBox="0 0 96 36" enable-background="new 0 0 96 36" xml:space="preserve">
<line fill="currentColor" x1="93.99" y1="4" x2="92.14" y2="10"/>
<polyline fill="currentColor" points="92.14,10 83.67,10 78.65,26 70.03,26 74.91,10 66.49,10 68.3,4 93.99,4 "/>
<path fill="currentColor" d="M52.58,4.1H39.46C37.37,11.15,33,26,33,26h15.93C63.81,26,73.26,4.1,52.58,4.1z M48.24,20.01l-4.56,0.02
	l3.04-10.24c0,0,1.1,0.02,3.48,0.02C58.3,9.81,56.09,20.01,48.24,20.01z"/>
<path fill="currentColor" d="M4,26h8.87l2.48-8l4.52,0.05c2.29,0.17,3.27,1.56,2.96,3.87L22.35,26h8.61c0.88-7.89,0.88-7.86-1.14-10.07
	c0.69-0.4,1.38-0.75,2.02-1.18c2.38-1.59,3.98-4.56,3.39-6.61c-0.78-2.71-4.23-4.05-6.99-4.05H10.47L4,26z M16.77,14.08l1.1-5.1
	h5.71c3.33,0,3.57,5.1-1.67,5.1C21.27,14.08,16.77,14.08,16.77,14.08z"/>
<path fill="currentColor" d="M57.3,28h-54l-2,6h53.81"/>
<path fill="currentColor" d="M63.3,28h-3l-2,6h2.81"/>
<path fill="currentColor" d="M69.3,28h-3l-2,6h2.81"/>
<path fill="currentColor" d="M75.3,28h-3l-2,6h2.81"/>
<path fill="currentColor" d="M81.3,28h-3l-2,6h2.81"/>
<path fill="currentColor" d="M87.3,28h-3l-2,6h2.81"/>
<path fill="currentColor" d="M93.3,28h-3l-2,6h2.81"/>
</svg>
