<?xml version="1.0" encoding="utf-8"?>
<!-- Generator: Adobe Illustrator 16.0.0, SVG Export Plug-In . SVG Version: 6.00 Build 0)  -->
<svg version="1.1" id="Layer_1" xmlns="http://www.w3.org/2000/svg" xmlns:xlink="http://www.w3.org/1999/xlink" x="0px" y="0px"
	 viewBox="0 0 50 50" enable-background="new 0 0 50 50" xml:space="preserve">
<g class="st0">
	<rect x="5.469" y="37.516" fill="#666666" width="15.625" height="1.53"/>
	<rect x="24.235" y="37.5" fill="#666666" width="1.53" height="4.688"/>
	<rect x="28.923" y="37.5" fill="#666666" width="1.53" height="4.688"/>
	<rect x="33.61" y="37.5" fill="#666666" width="1.529" height="4.688"/>
	<rect x="38.297" y="37.5" fill="#666666" width="1.53" height="4.688"/>
	<rect x="42.985" y="37.5" fill="#666666" width="1.53" height="4.688"/>
	<path fill="#666666" d="M49.202,46.892V23.762l-11.003,5.501L36.661,1.579h-7.692l-1.58,25.277l-4.835,2.418L21.023,8.61h-7.662
		l-1.586,18.241L0.797,32.34v14.551H0v1.53h50v-1.53L49.202,46.892L49.202,46.892z M30.406,3.108h4.808l0.089,1.596h-4.996
		L30.406,3.108z M30.211,6.234h5.177l0.089,1.595h-5.365L30.211,6.234z M30.016,9.358h5.545l1.148,20.651l-3.131,1.564v-7.812
		l-4.607,2.303L30.016,9.358z M14.764,10.14h4.838l0.118,1.596h-5.095L14.764,10.14z M14.492,13.265h5.342l0.118,1.596h-5.599
		L14.492,13.265z M14.22,16.39h5.845l1.009,13.624l-3.122,1.561v-7.812l-4.572,2.287L14.22,16.39z M5.485,46.892H2.327v-1.596h3.158
		L5.485,46.892L5.485,46.892z M19.547,46.892H7.015V41.39h12.533V46.892z M47.672,46.892H21.077v-1.596h26.595V46.892z
		 M47.672,43.766H21.077v-3.906H5.485v3.906H2.327v-10.48l14.095-7.047v7.813l15.625-7.813v7.813l15.626-7.813L47.672,43.766
		L47.672,43.766z"/>
</g>
</svg>
